<svg width="83" height="16" fill="none" xmlns="http://www.w3.org/2000/svg"><path fill-rule="evenodd" clip-rule="evenodd" d="M44.197 9.901L37.451.167h-2.212V15.76h2.776V5.982l6.78 9.778h2.179V.167h-2.777v9.734zm32.15-2.318h-3.093V2.991h3.093a2.296 2.296 0 110 4.592zm1.56 2.54A5.074 5.074 0 0076.38.215h-5.902v15.592h2.777v-6.94l5.785 6.94h3.61l-4.741-5.684zm-19.183 3.1a5.224 5.224 0 010-10.447 5.226 5.226 0 015.225 5.226 5.225 5.225 0 01-5.225 5.222zm0-13.223a7.999 7.999 0 00-7.998 8.002A7.998 7.998 0 0058.723 16a7.999 7.999 0 008.002-7.998A8 8 0 0058.723 0zM23.489 13.224a5.225 5.225 0 01-5.226-5.222 5.226 5.226 0 015.226-5.226 5.224 5.224 0 010 10.447zm0-13.224a8 8 0 00-8.002 8.002A7.999 7.999 0 0023.489 16a7.998 7.998 0 007.998-7.998A7.999 7.999 0 0023.489 0zM8.959 6.535H2.776V.215H0v15.592h2.776V9.312H8.96v6.495h2.776V.215H8.96v6.32z" fill="url(#paint0_linear)"/><defs><linearGradient id="paint0_linear" x1="11.733" y1="17.127" x2="14.78" y2="-7.947" gradientUnits="userSpaceOnUse"><stop stop-color="#A2D9F7"/><stop offset=".4" stop-color="#008DD2"/><stop offset=".749" stop-color="#0060AA"/><stop offset="1" stop-color="#E5097F"/></linearGradient></defs></svg>