<svg width="59" height="21" fill="none" xmlns="http://www.w3.org/2000/svg"><path fill-rule="evenodd" clip-rule="evenodd" d="M12.134 16.723l-1.53-4.52H4.23l-1.53 4.52H0L6.038 0h2.804l6.038 16.723h-2.746zM7.382 2.781l-2.491 7.336h5.052L7.452 2.781h-.07zm15.39 1.553c3.095 0 5.135 2.434 5.135 6.293 0 3.86-2.029 6.305-5.088 6.305-1.75 0-3.14-.858-3.836-2.214h-.058v6.038h-2.503V4.531h2.422V6.63h.046c.719-1.402 2.121-2.295 3.883-2.295zm-.66 10.477c1.982 0 3.222-1.623 3.222-4.184 0-2.55-1.24-4.183-3.222-4.183-1.912 0-3.199 1.668-3.199 4.183 0 2.538 1.275 4.184 3.199 4.184zm14.07-10.477c3.093 0 5.133 2.434 5.133 6.293 0 3.86-2.028 6.305-5.087 6.305-1.75 0-3.141-.858-3.837-2.214h-.057v6.038H29.83V4.531h2.422V6.63h.047c.718-1.402 2.12-2.295 3.882-2.295zm-.662 10.477c1.982 0 3.222-1.623 3.222-4.184 0-2.55-1.24-4.183-3.221-4.183-1.913 0-3.2 1.668-3.2 4.183 0 2.538 1.276 4.184 3.2 4.184zm7.812 1.912V0h2.503v16.723h-2.503zM53.507 6.328c-1.75 0-2.979 1.332-3.106 3.175h6.096c-.058-1.866-1.24-3.175-2.99-3.175zm2.978 6.814h2.376c-.348 2.225-2.457 3.813-5.25 3.813-3.58 0-5.748-2.422-5.748-6.27 0-3.824 2.202-6.374 5.644-6.374C56.89 4.311 59 6.698 59 10.395v.858h-8.61v.15c0 2.121 1.274 3.524 3.279 3.524 1.425 0 2.48-.719 2.816-1.785z" fill="#141414"/></svg>