<?xml version="1.0" encoding="UTF-8"?>
<!DOCTYPE svg PUBLIC "-//W3C//DTD SVG 1.1//EN" "http://www.w3.org/Graphics/SVG/1.1/DTD/svg11.dtd">
<!-- Creator: CorelDRAW 2019 (64-Bit) -->
<svg xmlns="http://www.w3.org/2000/svg" xml:space="preserve" width="0.539169in" height="0.660795in" version="1.1" style="shape-rendering:geometricPrecision; text-rendering:geometricPrecision; image-rendering:optimizeQuality; fill-rule:evenodd; clip-rule:evenodd"
viewBox="0 0 31.11 38.13"
 xmlns:xlink="http://www.w3.org/1999/xlink"
 xmlns:xodm="http://www.corel.com/coreldraw/odm/2003">
 <defs>
  <style type="text/css">
   <![CDATA[
    .fil1 {fill:#01C764;fill-rule:nonzero}
    .fil0 {fill:#232D40;fill-rule:nonzero}
   ]]>
  </style>
 </defs>
 <g id="Layer_x0020_1">
  <metadata id="CorelCorpID_0Corel-Layer"/>
  <path class="fil0" d="M29.21 8.13l-27.35 0 0 28.15 27.41 0 0 -28.15 -0.05 0zm-13.51 19.81c-0.69,0 -1.38,-0.12 -2.05,-0.35 -0.48,-0.17 -0.74,-0.7 -0.57,-1.18 0.17,-0.48 0.7,-0.74 1.18,-0.57 1.11,0.38 2.29,0.32 3.35,-0.19 1.05,-0.51 1.85,-1.4 2.23,-2.5 0.17,-0.48 0.7,-0.74 1.18,-0.57 0.48,0.17 0.74,0.7 0.57,1.18 -0.55,1.57 -1.67,2.84 -3.17,3.56 -0.86,0.42 -1.78,0.63 -2.71,0.63zm-0 -14.47c-4.54,0 -8.23,3.69 -8.23,8.23 0,4.54 3.69,8.23 8.23,8.23 4.54,0 8.23,-3.69 8.23,-8.23 0,-4.54 -3.69,-8.23 -8.23,-8.23zm0 18.32c-5.56,0 -10.09,-4.52 -10.09,-10.09 0,-5.56 4.52,-10.08 10.09,-10.08 5.56,0 10.09,4.52 10.09,10.08 0,5.56 -4.52,10.09 -10.09,10.09zm-13.84 -25.51l27.35 0 0.05 0 0 -4.42 -27.41 0 0 4.42zm28.33 31.86l-29.26 0c-0.51,0 -0.93,-0.42 -0.93,-0.93l0 -36.28c0,-0.51 0.41,-0.93 0.93,-0.93l29.26 0c0.51,0 0.93,0.41 0.93,0.93l0 36.28c0,0.51 -0.41,0.93 -0.93,0.93z"/>
  <path class="fil1" d="M19.92 7.2c0,1.56 1.26,2.82 2.82,2.82 1.56,0 2.82,-1.26 2.82,-2.82 0,-1.56 -1.26,-2.82 -2.82,-2.82 -1.56,0 -2.82,1.26 -2.82,2.82z"/>
 </g>
</svg>
