<?xml version="1.0" encoding="UTF-8"?>
<!DOCTYPE svg PUBLIC "-//W3C//DTD SVG 1.1//EN" "http://www.w3.org/Graphics/SVG/1.1/DTD/svg11.dtd">
<!-- Creator: CorelDRAW 2019 (64-Bit) -->
<svg xmlns="http://www.w3.org/2000/svg" xml:space="preserve" width="1.05718in" height="0.597303in" version="1.1" style="shape-rendering:geometricPrecision; text-rendering:geometricPrecision; image-rendering:optimizeQuality; fill-rule:evenodd; clip-rule:evenodd"
viewBox="0 0 127.8 72.21"
 xmlns:xlink="http://www.w3.org/1999/xlink"
 xmlns:xodm="http://www.corel.com/coreldraw/odm/2003">
 <defs>
  <style type="text/css">
   <![CDATA[
    .fil0 {fill:#232D40}
    .fil1 {fill:#01C764;fill-rule:nonzero}
   ]]>
  </style>
 </defs>
 <g id="Layer_x0020_1">
  <metadata id="CorelCorpID_0Corel-Layer"/>
  <path class="fil0" d="M36.67 15.3l0.04 -0.09 0.01 -0.03 0.02 -0.03 0.01 -0.02 0.02 -0.04 0.01 -0.02c0.22,-0.39 0.49,-0.73 0.81,-1.01l0 -5.17 -2.62 0c-1.07,0 -1.94,-0.87 -1.94,-1.94l0 -0c0,-1.07 0.87,-1.94 1.94,-1.94l12.02 0c1.07,0 1.94,0.87 1.94,1.94l0 0c0,1.07 -0.87,1.94 -1.94,1.94l-5.52 0 0 4.21 41.65 0 -4.78 -9.22 -3.05 0c-1.07,0 -1.94,-0.87 -1.94,-1.94l0 -0c0,-1.07 0.87,-1.94 1.94,-1.94l12.02 0c1.07,0 1.94,0.87 1.94,1.94l0 0c0,1.07 -0.87,1.94 -1.94,1.94l-4.6 0 11.06 21.32c2.93,-1.25 6.16,-1.93 9.55,-1.93 13.51,0 24.47,10.95 24.47,24.47 0,13.51 -10.95,24.47 -24.47,24.47 -13.51,0 -24.47,-10.96 -24.47,-24.47 0,-8.74 4.58,-16.41 11.48,-20.74l-3.81 -7.35 -15.73 30.38 -0.05 0.1 -0.03 0.06 -0.01 0.02 -0.02 0.04 -0.01 0.02 -0.02 0.04 -0.01 0.01c-0.3,0.52 -0.71,0.95 -1.18,1.27l-0.02 0.02 -0.03 0.02 -0.1 0.06 -0.04 0.02 -0.02 0.01 -0.04 0.02 -0.01 0.01 -0.04 0.02 -0.01 0 -0.05 0.03 -0.01 0 -0.05 0.03 -0 0 -0.11 0.05 -0.01 0 -0.1 0.05 -0.02 0.01 -0.04 0.02 -0.02 0.01 -0.06 0.02 -0.03 0.01 -0.03 0.01 -0.06 0.02 -0.02 0.01 -0.04 0.01c-0.06,0.02 -0.13,0.04 -0.19,0.05l-0.01 0 -0.12 0.03 -0 0 -0.06 0.01 -0.01 0 -0.05 0.01 -0.01 0 -0.05 0.01 -0.02 0 -0.05 0.01 -0.02 0 -0.04 0.01 -0.03 0 -0.04 0 -0.03 0 -0.03 0 -0.04 0 -0.03 0 -0.04 0 -0.02 0 -0.05 0 -0.02 0 -0.05 0 -0.01 0 -0.05 0 -0.01 0 -0.06 0 -0 0 -0.07 0 -18.78 0c-2.12,11.36 -12.08,19.96 -24.05,19.96 -13.51,0 -24.47,-10.96 -24.47,-24.47 0,-13.51 10.95,-24.47 24.47,-24.47 2.61,0 5.12,0.41 7.48,1.17l4.73 -9.13zm60.76 32.44c0,3.26 2.64,5.9 5.91,5.9 3.26,0 5.9,-2.64 5.9,-5.9 0,-3.26 -2.64,-5.9 -5.9,-5.9 -0.3,0 -0.6,0.02 -0.89,0.07l-6.87 -13.24c2.39,-0.97 5.01,-1.51 7.75,-1.51 11.37,0 20.59,9.22 20.59,20.59 0,11.37 -9.22,20.59 -20.59,20.59 -11.37,0 -20.59,-9.22 -20.59,-20.59 0,-7.24 3.74,-13.61 9.39,-17.28l6.87 13.25c-0.98,1.05 -1.59,2.47 -1.59,4.03zm-29.24 -1.1l-24.89 -29.65 40.24 0 -15.35 29.65zm-28.76 -28.22l25.13 29.94 -15.63 0c0,-0.21 0.01,-0.42 0.01,-0.62 0,-9.52 -5.44,-17.78 -13.39,-21.82l3.88 -7.5zm5.13 33.82l-20.62 0c-1.39,0 -2.59,-0.67 -3.31,-1.86 -0.73,-1.19 -0.78,-2.56 -0.14,-3.8l9.65 -18.65c-1.8,-0.51 -3.7,-0.79 -5.66,-0.79 -11.37,0 -20.59,9.22 -20.59,20.59 0,11.37 9.22,20.59 20.59,20.59 9.82,0 18.03,-6.88 20.09,-16.08zm-10.79 -22.88c6.7,3.4 11.29,10.35 11.29,18.37 0,0.21 -0,0.42 -0.01,0.62l-21.11 0 9.83 -18.99z"/>
  <path class="fil1" d="M18.56 47.74c0,3.26 2.64,5.91 5.91,5.91 3.26,0 5.91,-2.64 5.91,-5.91 0,-3.26 -2.64,-5.91 -5.91,-5.91 -3.26,0 -5.91,2.64 -5.91,5.91z"/>
 </g>
</svg>
